@startuml testbench

entity ngc_counter
interface ngc_counter_if

package uvm_db <<Database>> {
    class cfg {
        ngc_counter_if vif
    }
}

package test {
    class env {}
}

package test.env_h {

    class scoreboard {
        analysis_export
    }
    class coverage_sub {
        analysis_export
    }
    class agent {
        uvm_analysis_port counter_ap
    }

}

package test.env_h.agent_h {
    class monitor {
        uvm_analysis_port counter_ap
    }
    class driver {
        seq_item_port
    }
    class sequencer {
        seq_item_export
    }

}

package sequences {
    class counter_seq_free_running {}
    class counter_seq_random {}
}

package sequence_items {
    class counter_seq_item {}
    class counter_seq_item_reset {
        rst == 1
    }
    class counter_seq_item_random {
        any_input (with disttribution)
    }
    class counter_seq_item_free_running {
        enb == 1, rst == 0, load == 0
    }
}

ngc_counter <--> ngc_counter_if
cfg::ngc_counter_if <-- ngc_counter_if
cfg::ngc_counter_if ..> driver
cfg::ngc_counter_if ..> monitor

sequencer o--> driver : seq_item
monitor o--> agent

agent o--> coverage_sub
agent o--> scoreboard

counter_seq_item <|-- counter_seq_item_reset
counter_seq_item <|-- counter_seq_item_free_running
counter_seq_item <|-- counter_seq_item_random

@enduml